<svg width="203" height="30" viewBox="0 0 203 30" fill="none" xmlns="http://www.w3.org/2000/svg">
<path d="M14.89 2H19.75V23H14.89V2ZM5.35 23H0.49V2H5.35V23ZM15.25 14.39H4.99V10.28H15.25V14.39ZM32.0685 23.24C30.3485 23.24 28.8185 22.88 27.4785 22.16C26.1585 21.44 25.1085 20.46 24.3285 19.22C23.5685 17.96 23.1885 16.53 23.1885 14.93C23.1885 13.31 23.5685 11.88 24.3285 10.64C25.1085 9.38 26.1585 8.4 27.4785 7.7C28.8185 6.98 30.3485 6.62 32.0685 6.62C33.7685 6.62 35.2885 6.98 36.6285 7.7C37.9685 8.4 39.0185 9.37 39.7785 10.61C40.5385 11.85 40.9185 13.29 40.9185 14.93C40.9185 16.53 40.5385 17.96 39.7785 19.22C39.0185 20.46 37.9685 21.44 36.6285 22.16C35.2885 22.88 33.7685 23.24 32.0685 23.24ZM32.0685 19.4C32.8485 19.4 33.5485 19.22 34.1685 18.86C34.7885 18.5 35.2785 17.99 35.6385 17.33C35.9985 16.65 36.1785 15.85 36.1785 14.93C36.1785 13.99 35.9985 13.19 35.6385 12.53C35.2785 11.87 34.7885 11.36 34.1685 11C33.5485 10.64 32.8485 10.46 32.0685 10.46C31.2885 10.46 30.5885 10.64 29.9685 11C29.3485 11.36 28.8485 11.87 28.4685 12.53C28.1085 13.19 27.9285 13.99 27.9285 14.93C27.9285 15.85 28.1085 16.65 28.4685 17.33C28.8485 17.99 29.3485 18.5 29.9685 18.86C30.5885 19.22 31.2885 19.4 32.0685 19.4ZM64.7167 6.62C65.9967 6.62 67.1267 6.88 68.1067 7.4C69.1067 7.9 69.8867 8.68 70.4467 9.74C71.0267 10.78 71.3167 12.12 71.3167 13.76V23H66.6367V14.48C66.6367 13.18 66.3667 12.22 65.8267 11.6C65.2867 10.98 64.5267 10.67 63.5467 10.67C62.8667 10.67 62.2567 10.83 61.7167 11.15C61.1767 11.45 60.7567 11.91 60.4567 12.53C60.1567 13.15 60.0067 13.94 60.0067 14.9V23H55.3267V14.48C55.3267 13.18 55.0567 12.22 54.5167 11.6C53.9967 10.98 53.2467 10.67 52.2667 10.67C51.5867 10.67 50.9767 10.83 50.4367 11.15C49.8967 11.45 49.4767 11.91 49.1767 12.53C48.8767 13.15 48.7267 13.94 48.7267 14.9V23H44.0467V6.86H48.5167V11.27L47.6767 9.98C48.2367 8.88 49.0267 8.05 50.0467 7.49C51.0867 6.91 52.2667 6.62 53.5867 6.62C55.0667 6.62 56.3567 7 57.4567 7.76C58.5767 8.5 59.3167 9.64 59.6767 11.18L58.0267 10.73C58.5667 9.47 59.4267 8.47 60.6067 7.73C61.8067 6.99 63.1767 6.62 64.7167 6.62ZM83.6388 23.24C81.7988 23.24 80.1788 22.88 78.7788 22.16C77.3988 21.44 76.3288 20.46 75.5688 19.22C74.8088 17.96 74.4288 16.53 74.4288 14.93C74.4288 13.31 74.7988 11.88 75.5388 10.64C76.2988 9.38 77.3288 8.4 78.6288 7.7C79.9288 6.98 81.3988 6.62 83.0388 6.62C84.6188 6.62 86.0388 6.96 87.2988 7.64C88.5788 8.3 89.5888 9.26 90.3288 10.52C91.0688 11.76 91.4388 13.25 91.4388 14.99C91.4388 15.17 91.4288 15.38 91.4088 15.62C91.3888 15.84 91.3688 16.05 91.3488 16.25H78.2388V13.52H88.8887L87.0888 14.33C87.0888 13.49 86.9188 12.76 86.5788 12.14C86.2388 11.52 85.7688 11.04 85.1688 10.7C84.5688 10.34 83.8688 10.16 83.0688 10.16C82.2688 10.16 81.5588 10.34 80.9388 10.7C80.3388 11.04 79.8688 11.53 79.5288 12.17C79.1888 12.79 79.0188 13.53 79.0188 14.39V15.11C79.0188 15.99 79.2088 16.77 79.5888 17.45C79.9888 18.11 80.5388 18.62 81.2388 18.98C81.9588 19.32 82.7988 19.49 83.7588 19.49C84.6188 19.49 85.3688 19.36 86.0088 19.1C86.6688 18.84 87.2688 18.45 87.8088 17.93L90.2988 20.63C89.5588 21.47 88.6288 22.12 87.5088 22.58C86.3888 23.02 85.0988 23.24 83.6388 23.24ZM94.8845 23V2H105.145C107.785 2 109.765 2.5 111.085 3.5C112.425 4.5 113.095 5.82 113.095 7.46C113.095 8.56 112.825 9.52 112.285 10.34C111.745 11.14 111.005 11.76 110.065 12.2C109.125 12.64 108.045 12.86 106.825 12.86L107.395 11.63C108.715 11.63 109.885 11.85 110.905 12.29C111.925 12.71 112.715 13.34 113.275 14.18C113.855 15.02 114.145 16.05 114.145 17.27C114.145 19.07 113.435 20.48 112.015 21.5C110.595 22.5 108.505 23 105.745 23H94.8845ZM99.7145 19.34H105.385C106.645 19.34 107.595 19.14 108.235 18.74C108.895 18.32 109.225 17.66 109.225 16.76C109.225 15.88 108.895 15.23 108.235 14.81C107.595 14.37 106.645 14.15 105.385 14.15H99.3545V10.61H104.545C105.725 10.61 106.625 10.41 107.245 10.01C107.885 9.59 108.205 8.96 108.205 8.12C108.205 7.3 107.885 6.69 107.245 6.29C106.625 5.87 105.725 5.66 104.545 5.66H99.7145V19.34ZM124.304 23.24C122.964 23.24 121.764 22.98 120.704 22.46C119.664 21.94 118.854 21.15 118.274 20.09C117.694 19.01 117.404 17.64 117.404 15.98V6.86H122.084V15.29C122.084 16.63 122.364 17.62 122.924 18.26C123.504 18.88 124.314 19.19 125.354 19.19C126.074 19.19 126.714 19.04 127.274 18.74C127.834 18.42 128.274 17.94 128.594 17.3C128.914 16.64 129.074 15.82 129.074 14.84V6.86H133.754V23H129.314V18.56L130.124 19.85C129.584 20.97 128.784 21.82 127.724 22.4C126.684 22.96 125.544 23.24 124.304 23.24ZM145.02 23.24C143.5 23.24 142.13 22.9 140.91 22.22C139.69 21.52 138.72 20.55 138 19.31C137.3 18.07 136.95 16.61 136.95 14.93C136.95 13.23 137.3 11.76 138 10.52C138.72 9.28 139.69 8.32 140.91 7.64C142.13 6.96 143.5 6.62 145.02 6.62C146.38 6.62 147.57 6.92 148.59 7.52C149.61 8.12 150.4 9.03 150.96 10.25C151.52 11.47 151.8 13.03 151.8 14.93C151.8 16.81 151.53 18.37 150.99 19.61C150.45 20.83 149.67 21.74 148.65 22.34C147.65 22.94 146.44 23.24 145.02 23.24ZM145.83 19.4C146.59 19.4 147.28 19.22 147.9 18.86C148.52 18.5 149.01 17.99 149.37 17.33C149.75 16.65 149.94 15.85 149.94 14.93C149.94 13.99 149.75 13.19 149.37 12.53C149.01 11.87 148.52 11.36 147.9 11C147.28 10.64 146.59 10.46 145.83 10.46C145.05 10.46 144.35 10.64 143.73 11C143.11 11.36 142.61 11.87 142.23 12.53C141.87 13.19 141.69 13.99 141.69 14.93C141.69 15.85 141.87 16.65 142.23 17.33C142.61 17.99 143.11 18.5 143.73 18.86C144.35 19.22 145.05 19.4 145.83 19.4ZM150.06 23V19.7L150.15 14.9L149.85 10.13V0.739999H154.53V23H150.06ZM165.791 23.24C164.271 23.24 162.901 22.9 161.681 22.22C160.461 21.52 159.491 20.55 158.771 19.31C158.071 18.07 157.721 16.61 157.721 14.93C157.721 13.23 158.071 11.76 158.771 10.52C159.491 9.28 160.461 8.32 161.681 7.64C162.901 6.96 164.271 6.62 165.791 6.62C167.151 6.62 168.341 6.92 169.361 7.52C170.381 8.12 171.171 9.03 171.731 10.25C172.291 11.47 172.571 13.03 172.571 14.93C172.571 16.81 172.301 18.37 171.761 19.61C171.221 20.83 170.441 21.74 169.421 22.34C168.421 22.94 167.211 23.24 165.791 23.24ZM166.601 19.4C167.361 19.4 168.051 19.22 168.671 18.86C169.291 18.5 169.781 17.99 170.141 17.33C170.521 16.65 170.711 15.85 170.711 14.93C170.711 13.99 170.521 13.19 170.141 12.53C169.781 11.87 169.291 11.36 168.671 11C168.051 10.64 167.361 10.46 166.601 10.46C165.821 10.46 165.121 10.64 164.501 11C163.881 11.36 163.381 11.87 163.001 12.53C162.641 13.19 162.461 13.99 162.461 14.93C162.461 15.85 162.641 16.65 163.001 17.33C163.381 17.99 163.881 18.5 164.501 18.86C165.121 19.22 165.821 19.4 166.601 19.4ZM170.831 23V19.7L170.921 14.9L170.621 10.13V0.739999H175.301V23H170.831ZM181.673 29.06C180.833 29.06 180.003 28.93 179.183 28.67C178.363 28.41 177.693 28.05 177.173 27.59L178.883 24.26C179.243 24.58 179.653 24.83 180.113 25.01C180.593 25.19 181.063 25.28 181.523 25.28C182.183 25.28 182.703 25.12 183.083 24.8C183.483 24.5 183.843 23.99 184.163 23.27L185.003 21.29L185.363 20.78L191.153 6.86H195.653L188.363 23.99C187.843 25.29 187.243 26.31 186.563 27.05C185.903 27.79 185.163 28.31 184.343 28.61C183.543 28.91 182.653 29.06 181.673 29.06ZM184.433 23.63L177.233 6.86H182.063L187.643 20.36L184.433 23.63Z" fill="white"/>
<path d="M199.332 23.24C198.532 23.24 197.842 22.97 197.262 22.43C196.702 21.87 196.422 21.16 196.422 20.3C196.422 19.44 196.702 18.75 197.262 18.23C197.842 17.69 198.532 17.42 199.332 17.42C200.152 17.42 200.842 17.69 201.402 18.23C201.962 18.75 202.242 19.44 202.242 20.3C202.242 21.16 201.962 21.87 201.402 22.43C200.842 22.97 200.152 23.24 199.332 23.24Z" fill="#FA8C16"/>
</svg>
